<?xml version="1.0"?><svg version="1.2" baseProfile="tiny-ps" viewBox="0 0 175 175" xmlns="http://www.w3.org/2000/svg" xmlns:xlink="http://www.w3.org/1999/xlink"><title>Oberon Engineering Pty Ltd
</title><g><g fill="#f6f4f3" transform="matrix(.1 0 0 -.1 0 175)"><path d="M770 1631c-5-11-10-31-10-45v-26h-57c-5 0-8 8-8 18l-1 17-12-2c-7-2-12 2-12 7v10h-22c-13 0-47-11-76-25l-54-25 3-41 3-41-18-10-18-10-31 22-30 23-26-17c-14-10-39-23-54-29l-29-12 2-55c2-30 2-60 1-66l-1-12-44 5-43 5-22-11-21-12v-14c0-8-7-18-16-23l-17-9v-83l10-12c6-7 13-23 16-35l5-23h-73l-25-26-24-26-1-51v-51l32-21 32-20 1-13v-14l-30-11-30-11v-24l-21-5-21-6 4-61 4-62 15-9c8-5 31-12 52-15l37-7v-45l-31-11-31-10 7-93 7-93 10-12 10-13h57l10 18 10 17 1-65v-65l16-65 15-65 40-82 40-83h229l-6 38-6 37 21 19 21 19V88c0-14 5-39 11-57l11-31h186l6 25 6 25h50V-1l93 3 92 3 3 28 3 27h15c9 0 30-14 47-31l31-31 47 4 48 5 27 17 26 18-4 49-5 49h21c12 0 30-7 40-15l20-15h52l42 28 43 27 5 20 5 21-10 27c-6 15-8 33-5 41l5 13 44-5 44-4 24 25c13 15 30 44 37 67l13 40-21 23-21 23 6 22 5 22h24c12 0 34 4 47 9l25 10 11 51c6 28 11 62 11 76v24l-24 10c-21 8-46 37-46 54 0 2 15 8 33 11 17 4 38 12 45 17l12 10v138l-22 10c-13 5-35 11-50 14l-26 6 5 21 6 21 24 11 23 10 6 24 6 23-22 60-22 60h-106l14 55 15 56-43 48-43 49-51-5-50-5 4 61 4 61h-12c-7 0-28 14-47 30l-35 31-21-7c-12-3-32-15-44-26l-21-20-19 4-18 3-5 44-5 44-52 20-52 19-36-6-36-7-6-30-5-29h-59l6 20 7 21-16 24-16 25H781l-11-19zm428-862 3-67-16-16-16-16h-81l7 63 7 62 15 23 14 23 32-3 32-3 3-66zm92-49c0-5-4-10-10-10-5 0-10 5-10 10 0 6 5 10 10 10 6 0 10-4 10-10zm82-40c-2-16-8-30-12-30s-10 14-12 30l-5 30h34l-5-30zm-371-258 16-28 35-17c20-9 47-17 60-18h23l-70-20-70-21-112-1c-61-1-114 1-118 5l-6 6 25 40c13 22 37 49 52 61l27 21h122l16-28z"/></g><g fill="#c7ae87" transform="matrix(.1 0 0 -.1 0 175)"><path d="M770 1631c-5-11-10-31-10-45v-26h-57c-5 0-8 8-8 18l-1 17-12-2c-7-2-12 2-12 7v10h-22c-13 0-47-11-76-25l-54-25 3-41 3-41-18-10-18-10-31 22-30 23-26-17c-14-10-39-23-54-29l-29-12 2-55c2-30 2-60 1-66l-1-12-44 5-43 5-22-11-21-12v-14c0-8-7-18-16-23l-17-9v-83l10-12c6-7 13-23 16-35l5-23h-73l-25-26-24-26-1-51v-51l32-21 32-20 1-13v-14l-30-11-30-11v-24l-21-5-21-6 4-61 4-62 15-9c8-5 31-12 52-15l37-7v-45l-31-11-31-10 7-93 7-93 10-12 10-13h57l10 18 10 17 1-65v-65l16-65 15-65 40-82 40-83h100l-11 19c-5 11-10 39-10 64 0 24-7 67-16 96-8 29-14 64-12 78l3 25 29-23 28-22-4-79-5-78h7c4 0 14 7 21 16l13 16 11-53 10-54 33-3 32-3-6 38-6 38 21 19 21 19V88c0-14 5-39 11-57l11-31h186l6 25 6 25h50V-1l93 3 92 3 3 28 3 27h15c9 0 30-14 47-31l31-31 47 4 48 5 27 17 26 18-4 49-5 49h21c12 0 30-7 40-15l20-15h52l42 28 43 27 5 20 5 21-10 27c-6 15-8 33-5 41l5 13 44-5 44-4 24 25c13 15 30 44 37 67l13 40-21 23-21 23 6 22 5 22h24c12 0 34 4 47 9l25 10 11 51c6 28 11 62 11 76v24l-24 10c-21 8-46 37-46 54 0 2 15 8 33 11 17 4 38 12 45 17l12 10v138l-22 10c-13 5-35 11-50 14l-26 6 5 21 6 21 24 11 23 10 6 24 6 23-22 60-22 60h-106l14 55 15 56-43 48-43 49-51-5-50-5 4 61 4 61h-12c-7 0-28 14-47 30l-35 31-21-7c-12-3-32-15-44-26l-21-20-19 4-18 3-5 44-5 44-52 20-52 19-36-6-36-7-6-30-5-29h-59l6 20 7 21-16 24-16 25H781l-11-19zm414-616c9-9 27-22 41-29s35-28 48-46l22-34 45-22c25-13 57-26 73-30l27-6v32h-13c-7 0-22 6-33 14l-19 14 28 7 27 7 35-6 35-7-15-36c-9-20-20-43-27-50l-11-14-16 15c-9 8-36 19-61 26l-45 12-42 41c-53 50-57 38-6-15l37-38-7-7-7-6-43 45c-23 25-51 50-62 56l-20 10-34-12-35-11-35-50-36-50-3-93-4-93 12-14 12-15h84l20 15 19 14 68 1h67l18-18 18-18-7-70c-5-38-8-82-8-98l-1-28-22 14c-13 8-45 22-72 31l-50 17h-115l-43 63-42 62-4-17-3-17h-59l-58 1-30-16c-34-18-46-20-38-8 9 15-23 68-72 122l-51 55-1-20v-20l34-50c18-28 37-65 40-83l8-32-43-79-42-79-31 13-31 13-3 53c-2 29-1 63 2 75l6 22 34 22 35 21 6 21 7 20-11 11-10 10-20-24-20-24-1 18v18l-17-3-18-3-32-60c-17-33-36-61-42-63l-11-4v60l15 6c8 3 20 17 25 31l10 26-6 25-6 25-12-4c-6-2-13-15-16-28s-16-45-29-71l-24-47-19 24-18 23v55l59 56 59 56 21 41c11 22 27 47 37 55 9 8 23 29 31 47l13 32h15c24 0 18-17-25-74-22-29-40-55-40-58s28-8 63-10l63-5 42-22c24-12 60-38 82-57l38-35 7 11 7 11-23 25c-33 35-113 84-159 98l-40 12 18 34c10 19 29 52 41 73l23 37h-16c-19 0-20 5-6 30l10 18 31 11 32 11 37-10 38-10 6-26c4-15 6-27 4-28-2-2-20-13-41-25-72-44-84-69-43-91 14-7 46-40 73-74l47-61 4 18 4 19-36 58-36 58 9 24c5 12 18 32 30 42 11 11 21 25 21 32v13l15-5 16-6-5-17c-3-9-8-34-12-56l-6-40 18 18 19 18 10 42 11 42 59 30c33 17 64 36 68 43 11 17 42 15 61-3zm14-246 3-67-16-16-16-16h-81l7 63 7 62 15 23 14 23 32-3 32-3 3-66zm92-49c0-5-4-10-10-10-5 0-10 5-10 10 0 6 5 10 10 10 6 0 10-4 10-10zm82-40c-2-16-8-30-12-30s-10 14-12 30l-5 30h34l-5-30zm-371-258 16-28 35-17c20-9 47-17 60-18h23l-70-20-70-21-112-1c-61-1-114 1-118 5l-6 6 25 40c13 22 37 49 52 61l27 21h122l16-28z"/></g><g fill="#e1a12e" transform="matrix(.1 0 0 -.1 0 175)"><path d="M770 1631c-5-11-10-34-10-52v-31l20 5 20 5v-26l-60-4-60-3v25h-30v28l-17 6-17 7 14 10 15 10-25-7c-14-3-42-15-63-26l-38-19 2-40 3-40-14-10-15-11 23 5 22 5v-7c0-5-9-16-19-25l-20-18-32 16-33 16-34-6-34-7 11 20 10 20-34-16-35-16 2-67c1-38 5-68 8-68s16 7 28 16l22 15v-9c0-5-9-21-21-36l-20-26h-30c-35 0-69 16-69 31v11l30-4 30-5v17h-36c-42 0-74-15-74-35 0-8-7-18-16-23l-17-9v-84l12-12c6-6 11-19 11-28s7-22 15-29 15-16 15-21v-9h-80v15c0 22-12 18-40-11l-24-26-1-51v-51l32-21c36-23 41-39 16-55l-18-10 38 6 37 6v-10c0-6-16-24-35-39s-35-33-35-40v-12l28-4 27-4-32-2-32-1-8 39-8 38-24-8-23-9 4-61 4-61 15-9c8-5 31-12 52-15l37-7v-47h30v-12c0-7-4-19-9-27l-9-14-17 6-16 7 6 20 6 20-23-9-23-9 3-93 4-94 10-12 10-13h57l10 18 10 17 1-65v-65l16-65 15-65 40-82 40-83h86l-4 53c-3 28-13 85-24 125-20 77-24 128-11 136 12 7 82-42 82-57 0-7-4-17-9-22l-10-10-1-65c-1-36-1-69-1-74l1-9 20 18 20 18V95c0-10 5-35 12-56l11-39h57l-6 38-6 37 21 19 21 19V88c0-14 5-39 11-57l11-31h78l-12 25c-13 28-8 38 15 30l15-6 6-25 6-24h78l6 25 6 25h50V-1l93 3 92 3 3 28 3 27h15c9 0 30-14 47-31l31-31 47 4 48 5 27 17 26 18-4 49-5 49h21c12 0 30-7 40-15l20-15h52l42 28 43 27 5 20 5 21-10 27c-6 15-8 33-5 41l5 13 44-5 44-4 24 25c13 15 30 44 37 67l13 40-21 23-21 23 6 22 5 22h24c12 0 34 4 47 9l25 10 11 51c6 28 11 62 11 76v24l-24 10c-21 8-46 37-46 54 0 2 15 8 33 11 17 4 38 12 45 17l12 10v138l-22 10c-13 5-35 11-50 14l-26 6 5 21 6 21 24 11 23 10 6 24 6 23-22 60-22 60-52-2-51-1 31-4 32-4-5-20-6-20-41 7c-53 8-55 10-73 51-18 45-12 50 23 18l27-26 7 8c4 5 13 30 19 56l12 49-42 46c-23 26-44 49-47 52-2 3 3-9 12-27 20-40 20-49 1-33l-15 12-45-6-44-7-23 12c-24 12-38 28-38 42v8l21-6 21-7 9 13c5 8 9 35 9 62v47h-12c-7 0-25 12-41 28l-30 27 12-22c6-12 11-26 11-31v-9l-30 5-30 4-26-17-26-17-33 6-33 7-13 15-12 15 22 6 22 6-3 40-3 40-52 20-52 19-36-6-36-7-6-30-5-29h-59l6 20 7 21-16 24-16 25-38-1-37-2 28-4 27-4v-10c0-5-6-9-14-9-7 0-28-3-45-6l-31-6v42h-29l-11-19zm440-632c25-16 57-45 72-64l28-33 42-20c24-11 53-23 66-27l22-6v10c0 6-17 18-37 27l-38 16 20 8c27 12 87 12 104 1l15-9-25-49-25-48-26-14-26-15-38 19c-20 11-68 48-105 83l-69 62h-18c-9 0-27-3-39-6l-22-6-36-52-36-53-6-91-6-91 13-16 12-15h74l20 15 19 14 77 1h77l16-17 17-16-7-61c-3-34-8-77-11-98l-5-36-52 23-52 23-75 6-75 6-25 31c-14 17-35 43-48 58l-22 26 5-16 6-15-59 4-59 4-41-21-42-21v56l-57 68-57 69-4-12-4-12 41-67 41-68v-59l-38-66-39-66 11-15c6-9 25-18 42-22l30-7 22 40c12 22 36 51 53 65l31 26h127l6-20c9-27 55-58 101-68l38-8 3-11 4-12-38-16c-21-9-81-23-133-32l-95-16-77 11-76 11-64 29-63 30-68 57-67 57v24c0 13-8 37-19 55l-19 31 6 21c8 32 27 58 54 71l23 11 32 50c18 28 46 67 63 89 17 21 33 49 36 61l6 24 16 6 15 6 10-10 11-11-17-18c-9-10-17-23-17-29s-6-13-12-16c-7-3-21-19-31-36l-18-31h116l43-20c24-11 63-36 88-56 63-52 66-36 4 19l-52 47-59 21-59 22v11c0 6 18 38 40 71l40 60-20 5-20 5 24 30 24 30h104l14-19c8-11 14-28 14-37v-17l-43-25c-24-14-49-33-56-41l-13-15 44-43c24-24 59-61 77-83l32-40-6 30c-4 16-20 47-36 69l-29 40v38l29 33c16 18 31 39 34 47l5 13 12-12 12-11-10-46-10-46h9c13 0 29 36 29 63v25l29 24c15 14 44 31 62 38 19 8 38 20 42 27l8 13h44l45-31zm457-83c3-3-8-8-23-11-16-4-35-8-41-11l-13-3v47l36-8c19-5 38-11 41-14zm-117-70c0-3-4-8-10-11l-10-6v10c0 6 5 11 10 11 6 0 10-2 10-4zm-352-77 3-67-16-16-16-16h-81l7 63 7 62 15 23 14 23 32-3 32-3 3-66zm92-49c0-5-4-10-10-10-5 0-10 5-10 10 0 6 5 10 10 10 6 0 10-4 10-10zm82-40c-2-16-8-30-12-30s-10 14-12 30l-5 30h34l-5-30zm266 19 30-10 6-15 6-16-33 7c-17 4-38 12-44 17l-13 10 6 9c6 11 5 11 42-2zM530 647c0-7-9-30-20-52l-20-39v-83l21-27c11-14 29-31 39-36l19-10 16 57 17 57 39 36 39 35v48l-25-23-25-23v33h-12c-14 0-38-33-66-89-9-19-23-37-29-39l-13-4v61l20 11 20 11v89h-10c-5 0-10-6-10-13zm146 944-6-10 9-5 10-6 5 9 6 10-9 5-10 6-5-9zm42-38c6-2 18-2 25 0l12 5h-50l13-5zm536-35-19-23 23 19c21 18 27 26 19 26-2 0-12-10-23-22zm-833-21c2-1 13-9 24-17l20-15-14 18c-7 9-18 17-24 17s-8-1-6-3z"/></g><g fill="#df6823" transform="matrix(.1 0 0 -.1 0 175)"><path d="M766 1624c-3-9-6-29-6-46v-29l18 3 17 3 3 43 3 42h-29l-6-16zm254-14-20-20v-19c0-10 6-24 13-30l14-11 21 30 22 30 25 6c34 8 31 20-6 28-45 9-47 8-69-14zm-340-26v-15l10 6 10 6-5 10c-9 14-15 11-15-7zm457-10-5-28 8-22 9-22 21 5 21 6-3 41-3 41-21 3-21 3-6-27zm-613-17c-3-9-4-28-2-44l3-28 23-3 23-4-3 44-3 43-18 3-17 3-6-14zm820-96-10-38 7-20c4-11 15-23 24-27l18-6 13 11 14 11v96l-22 6c-13 3-25 6-28 6s-11-17-16-39zm-1022-81c1-38 4-70 6-70s17 8 33 17l29 17v56l-20 12c-11 7-20 18-20 25v13h-31l3-70zm432 51c-18-11-40-33-50-50l-18-31-48-16-48-16-55-49c-30-28-74-78-99-112-24-34-58-75-76-92-32-30-52-61-64-102l-7-22 31-3 31-3-34-37-34-37-38-81-39-80-10 3c-6 2-13 14-16 28l-6 24-42 3-41 3-7 35-6 35-22-3-21-3V699l15-9c8-6 32-13 53-16l37-7v-47h30v-12c0-7-4-19-9-27l-9-14-17 6-16 7 6 20 6 20-23-9-23-9 3-93 4-94 10-13 10-12h57l10 18 10 17 1-65v-65l16-65 15-65 40-82 40-83h87l-5 48c-3 26-14 82-24 126-21 85-24 132-10 140l9 6 41-30 41-30v39l-26 20-27 21h-56l-56 1-22 12-22 12 24 30 25 30 8-12 8-12 11 7c6 4 28 38 48 75 21 38 44 71 51 74l14 5 10 39 11 39 39 25 39 25 27 47c15 27 40 63 56 81 15 18 30 43 34 56l6 25 16 6 15 6 10-10 11-11-17-18c-9-10-17-23-17-29s-6-13-12-16c-7-3-21-19-31-36l-18-31h116l43-20c24-11 63-36 88-56 63-52 66-36 4 19l-52 47-59 21-59 22v11c0 6 18 38 40 71l40 60-21 5-21 5 31 34 31 34 47-6 47-5 13-18c7-10 13-26 13-35v-17l-43-25c-24-14-49-33-56-41l-13-15 44-43c24-24 59-61 77-83l32-40-6 30c-4 16-20 47-36 69l-29 40v38l30 35c17 18 30 38 30 43 0 6 7 10 15 10h15v-17c0-10-4-35-9-55l-9-38h9c13 0 29 35 29 63v25l29 24c15 14 44 31 62 38 19 8 38 20 42 27l8 13h49l43-31c23-17 54-45 69-64l28-33 42-20c24-11 53-23 66-27l22-6v10c0 6-17 18-37 27l-38 16 20 8c27 12 87 12 104 1l15-9-25-49-25-48-26-14-26-15-38 19c-20 11-68 48-105 83l-69 62h-18c-9 0-27-3-39-6l-22-6-36-52-36-53-6-91-6-91 13-16 12-15h74l20 15 19 14 77 1h77l16-17 17-16-7-61c-3-34-8-77-11-98l-5-36-52 23-52 23-75 6-75 6-20 24c-11 13-32 39-47 57l-28 34 6-16 5-15-59 4-59 4-41-21-42-21v56l-57 68-57 69-4-12-4-12 41-67 41-68v-57l-36-64-35-63 6-20c4-11 12-20 18-20 7 0 21-3 32-6l21-5 22 40c12 22 36 51 53 65l31 26h123l16-28 16-28 35-17c20-9 49-17 65-17h28l38 20c44 24 47 24 47 6v-14l50-11c28-6 53-11 55-11 3 0 12 12 22 27l17 26 7 121 6 121 18 35c9 19 35 54 57 77l41 42-5 18-5 19 12 9c6 6 20 15 31 21 10 6 25 23 32 37l13 27-6 34-7 34-31 30c-18 17-67 49-109 72l-78 42v13c0 19-114 121-173 155-29 17-80 39-115 50l-63 20-70 1-69 2v67h-75l-31-19zm444-662 3-67-16-16-16-16h-81l7 63 7 62 15 23 14 23 32-3 32-3 3-66zm92-49c0-5-4-10-10-10-5 0-10 5-10 10 0 6 5 10 10 10 6 0 10-4 10-10zm82-40c-2-16-8-30-12-30s-10 14-12 30l-5 30h34l-5-30zM344 637c-3-18-17-54-30-81-13-28-24-58-24-68v-18h-30v15c0 8-9 24-20 35l-21 21 22 32c12 18 38 49 57 69l35 37 9-5 9-6-7-31zm-141 666-13-5v-38h-30l-2-22c-2-36 1-61 11-83 5-11 12-28 15-37 8-26 18-22 44 17 27 42 28 57 3 79l-19 17 9 32 9 31-8 7c-4 4-13 4-19 2zm1340-7c-7-6-19-17-28-24l-15-13 1-22v-22l30-23 29-24 5 14c10 31 26 100 23 102-2 1-10 7-18 13l-15 11-12-12zm97-133c0-5 4-24 9-44l8-36-34-19-35-18 7-46 6-45 17-13 17-13 12 30 12 29 21 7 20 6 6 25 6 24-22 60-22 60h-14c-8 0-14-3-14-7zM69 1043l-10-27 3-35 3-36 32-20 32-20 1-13v-13l23 3 22 3 3 46 3 45-26 12c-14 7-33 12-41 12H99l7 35 6 35H80l-11-27zm1631-167v-46h-22c-13 0-33-3-46-6l-23-7 3-56 3-56 18-3 17-3v40l35 7c19 3 39 12 45 19l11 13-3 68-3 69-17 3-18 3v-45zm0-209v-17h-32l-10-28-11-27h-77l-16-16-16-16-5-40-5-41 31-18 31-18v-26h-13c-7 0-18-9-24-19l-12-20-35 6c-19 3-47 3-61-1l-26-7-16-35-17-35 12-8 13-8 2-29 2-28-35-12-35-12-26 13-25 14-38-9c-51-11-58-20-64-79l-5-51h-57l-16 25-16 25h-85l-21-22c-11-13-24-35-27-50l-7-28h-64l-17 39-18 40-29 6-30 7-29-7-29-6-13-30-12-31-21 6c-12 3-27 6-33 6h-13v91l-47 21-47 21-32-18-33-18-41 6-41 5 4-13c3-7 2-29-3-49l-8-36 9-6 9-5 6 15c8 21 24 20 24 0 0-9 5-34 12-55l11-39h57l-6 38-6 37 21 19 21 19V88c0-14 5-39 11-57l11-31h78l-12 25c-13 28-8 38 15 30l15-6 6-25 6-24h78l6 25 6 25h50V-1l93 3 92 3 3 28 3 27h15c9 0 30-14 47-31l31-31 47 4 48 5 27 17 26 18-4 49-5 49h21c12 0 30-7 40-15l20-15h52l42 28 43 27 5 20 5 21-10 27c-6 15-8 33-5 41l5 13 44-5 44-4 24 25c13 15 30 44 37 67l13 40-21 23-21 23 5 21 6 21 40 5c22 3 45 10 50 15s14 39 21 76l11 66-12 12-12 12v-17zM530 647c0-7-9-30-20-52l-20-39v-83l21-27c11-14 29-31 39-36l19-10 16 57 17 57 39 36 39 35v48l-25-23-25-23v33h-12c-14 0-38-33-66-89-9-19-23-37-29-39l-13-4v61l20 11 20 11v89h-10c-5 0-10-6-10-13z"/></g><g fill="#73512d" transform="matrix(.1 0 0 -.1 0 175)"><path d="M766 1625c-3-9-6-30-6-47v-29l18 3 17 3v78l-11 4-12 4-6-16zm268-5-21-8-6-29-5-28 9-9 9-10 33 32c18 18 38 32 45 32s12 5 12 10c0 6-6 10-14 10s-20 2-28 4c-7 3-23 1-34-4zm-354-36v-15l10 6 10 6-5 10c-9 14-15 11-15-7zm467 10c-9-9-9-57-1-78l6-16 20 11 19 10-3 37-3 37-15 3c-9 1-19 0-23-4zm-623-37c-3-9-4-28-2-44l3-28 23-3 23-4-3 44-3 43-18 3-17 3-6-14zm822-88c-3-17-6-42-6-55v-23l21-11 20-11 15 12 14 11v98h-14c-8 0-21 2-29 6l-14 5-7-32zm-1024-89c1-38 4-70 6-70s17 8 33 17l29 17v44l-27 31c-15 17-31 31-36 31h-8l3-70zm430 49-33-21-14-29-15-28-39-12-39-12-48-36c-26-20-67-61-91-91-23-30-68-83-98-116l-55-62-15-36c-19-46-20-44 17-48l33-3-21-20c-29-28-76-101-104-163l-24-52-10 3c-6 2-13 14-16 28l-6 24-42 3-41 3-7 35-6 35-22-3-21-3V699l15-9c8-6 32-13 53-16l37-7v-47h30v-12c0-7-4-19-9-27l-9-14-17 6-16 7 6 20 6 20-23-9-23-9 3-93 4-94 10-13 10-12h57l10 18 10 17 1-65v-65l16-65 15-65 40-82 40-83h44c25 0 45 2 45 5 0 12-32 80-44 95-7 8-18 34-23 57l-11 42 5 25c3 15 9 29 14 32s9 16 9 29c0 35 12 37 53 10 42-29 47-30 47-11 0 8-12 24-26 35l-27 21h-56l-56 1-22 12-22 12 21 33 21 33 10-10c18-18 24-13 63 51 20 35 46 73 57 86l21 22-12 12-11 11 18 26c10 14 21 37 25 51l6 25-13-26c-15-33-37-59-48-59h-9l10 26c13 32 12 37 0 29l-10-6v10c0 6 7 29 16 51l17 41 13-5 14-5 41 32 42 32 42 62 43 62 10 63 10 63 41 93 41 93-6 24c-8 32 1 64 25 93l20 23 45 13 46 14v-28l-12 3-13 2-3-45-3-44 17-13c10-7 24-13 32-13h14l-16 25c-27 41-18 45 18 9l34-34h37l-30-24-30-24 6-7 7-6 61 25 60 26h79l35-15c43-18 107-72 107-90v-13l-37 8c-20 5-40 7-44 4-4-2-9 5-12 16l-5 20h30l-12 15-12 15h-50l-5-20-5-20h-68v-21l53-24 52-25h165l18-9c9-6 48-24 85-42 38-18 82-45 98-60l29-27v-42h-20c-12 0-35 7-51 16l-30 15 11-21c7-12 25-29 41-38l29-17-6-20c-3-11-17-37-30-57l-24-38-24-6-24-6-43 28c-24 14-70 51-101 80l-57 54h-18c-10 0-28-3-40-6l-22-6-36-52-36-53-6-91-6-91 13-16 12-15h74l20 15 19 14 77 1h77l16-17 17-16-7-61c-3-34-8-77-11-98l-5-36-52 23-52 23-75 6-75 6-20 24c-11 13-32 39-47 57l-28 34 6-16 5-15-59 4-59 4-41-21-42-21v56l-57 68-57 69-4-12-4-12 41-67 41-68v-57l-36-64-35-63 6-20c4-11 12-20 18-20 7 0 21-3 32-6l21-5 22 40c12 22 36 51 53 65l31 26h123l16-28 16-28 38-18 38-18 40 6c22 4 49 13 60 21 27 19 37 19 37 0v-15h13c6-1 31-5 55-9l43-8 16 31 17 31 6 115 7 115 17 35c10 19 36 54 58 77l41 42-7 16-6 16 13 12c7 7 22 17 32 23 11 6 26 23 34 39l13 28-11 38-11 38-37 30c-21 17-68 47-105 66l-68 36v13c0 19-88 99-161 146l-63 40-63 20-64 20-70 1-69 2v67h-75l-33-21zm-108-226c-5-24-27-81-64-168-5-11-14-43-20-71l-11-51-42-59-42-59-3 24-4 23 41 39 41 40v49h-9c-5 0-13-9-16-20-4-11-25-41-47-67-22-25-52-70-66-100-24-49-42-67-42-43 0 9 32 73 78 156 7 13 25 32 41 43l27 20 12 39c7 22 12 48 12 58v19l20 13 20 12v19c0 10 5 32 11 50l11 31 27 15c14 8 27 14 29 15 1 0 0-12-4-27zm-94-37c0-8-4-26-9-39l-10-25-77-36c-42-20-79-35-81-32-8 7 53 66 69 66l13 1 27 39 28 40h40v-14zm-99-198c-14-29-34-61-44-72-20-23-97-166-97-180 0-12-31-46-42-46-15 0-8 17 28 70l36 52-9 9-9 9-37-56-37-57v-53l-15-20-15-19 6 40c7 42 11 51 73 154l39 63 3-11 4-10 10 7c6 4 23 34 37 67l26 60 33 23c17 12 33 22 34 22 2 0-9-23-24-52zm747-199 3-67-16-16-16-16h-81l7 63 7 62 15 23 14 23 32-3 32-3 3-66zm92-49c0-5-4-10-10-10-5 0-10 5-10 10 0 6 5 10 10 10 6 0 10-4 10-10zm82-40c-2-16-8-30-12-30s-10 14-12 30l-5 30h34l-5-30zM350 652c0-9-14-48-30-87-17-38-30-77-30-87v-17l-15 5c-8 4-15 12-15 20s-9 23-20 34l-20 20 17 28c9 15 34 46 56 69l40 42 9-5c4-3 8-13 8-22zm1178 629-28-26 1-20v-20l30-23 29-24 5 14c10 31 26 100 23 102-2 1-10 7-18 13l-15 11-27-27zm-1331 12c-4-3-7-14-7-24v-18l-15 5-15 6-2-23c-2-37 1-62 11-84 5-11 12-28 15-37 8-26 18-22 44 17 28 43 28 60 1 79l-21 15 10 29c12 35 0 56-21 35zm818-48-40-24 33-1h33l29 15c17 9 30 20 30 25v10h-45l-40-25zm-226-48-26-23-21-57c-12-31-25-69-28-84l-7-28 16 13c9 8 26 39 37 70 12 30 30 68 41 84 11 15 19 33 17 39l-3 10-26-24zm121-17-11-20h71l20-20 20-20h75l-43 20-44 20-5 20-5 20h-67l-11-20zm736-47c4-21 8-40 10-42s-12-15-32-28l-35-25 6-31c11-55 15-65 30-70l13-6 10 29 10 28 21 7 21 6 6 25 6 24-22 60-22 60h-29l7-37zm-514-48-11-24 22 9c12 5 39 11 59 15 21 3 40 10 43 15l6 10h-108l-11-25zm-235-6c-17-10-53-69-41-69 3 0 18 9 32 20 15 12 38 30 52 40l25 19h-25c-14 0-33-4-43-10zm-828-36-10-27 3-35 3-36 32-20c18-11 32-26 33-32v-13h38l6 16c3 9 6 30 6 48v33l-25 11c-14 7-33 12-42 12H98l6 35 7 35H80l-11-27zm669-25c-10-15-27-43-38-63l-21-37 6-18 5-17-15-13c-8-7-15-18-15-25s-6-15-12-18c-7-3-21-19-31-36l-18-31h116l43-20c24-11 63-36 88-56 63-52 66-36 4 19l-52 47-59 21-59 22v11c0 6 18 38 40 71l40 60-19 3-20 3 20 34 21 34-4 18-3 17-17-26zm169-5c-4-3-7-23-7-44v-37l-43-25c-24-14-49-33-56-41l-13-15 44-43c24-24 59-61 77-83l32-40-6 30c-4 16-20 47-36 69l-29 40v38l30 35 30 34v58l10 6c6 3 10 10 10 16 0 10-33 12-43 2zm129-6-39-12-18-31c-9-17-21-52-27-77l-10-47h9c13 0 29 36 29 63v25l30 25c16 14 46 31 65 38 68 25 35 38-39 16zm254-22c0-8 73-52 98-60l24-7-11 20-10 20-41 16c-41 16-60 20-60 11zm-670-30-12-15-6-47-5-46-43-42-44-42v-20c0-11 3-23 7-26l6-7 34 48c18 26 42 59 54 73l21 27 4 56c4 60 3 64-16 41zm649-4c16-29 71-68 120-86 51-18 51-18 51-6 0 5-29 23-64 40s-67 35-71 41c-3 5-15 15-26 21l-21 11 11-21zm431-75v-46h-28c-16 0-36-6-46-13l-17-13 3-49 3-50 18-3 17-3v40l35 7c19 3 39 12 45 19l11 13-3 68-3 69-17 3-18 3v-45zm0-209v-17h-32l-11-30-11-30h-72l-18-13-17-13-6-41-5-41 31-16 31-17v-29h-13c-7 0-18-9-24-19l-12-20-35 6c-19 3-47 3-61-1l-26-7-16-35-17-35 12-8 13-8 2-29 2-28-35-12-34-11-31 12-30 13-40-14c-22-7-41-14-42-14-8 0-1-40 7-45l10-6v-59h-86l-22 25-22 25h-77l-16-18c-9-10-22-33-28-50l-11-32h-65l-18 40-18 40H740v-12c0-7-7-21-15-31l-14-19-30 7-31 7v87l-21 12c-12 6-34 15-49 19l-27 8-38-18-38-18-31 9c-40 12-38 12-32-9l6-17-9-33-10-32 10-5 9-6 6 15c8 21 24 20 24 0 0-9 5-34 12-55l11-39h57l-6 38-6 37 21 19 21 19V88c0-14 5-39 11-57l11-31h78l-12 25c-13 28-8 38 15 30l15-6 6-25 6-24h78l6 25 6 25h50V-1l93 3 92 3 3 28 3 27h15c9 0 30-14 47-31l31-31 47 4 48 5 27 17 26 18-4 49-5 49h21c12 0 30-7 40-15l20-15h52l42 28 43 27 5 20 5 21-10 27c-6 15-8 33-5 41l5 13 44-5 44-4 24 25c13 15 30 44 37 67l13 40-21 23-21 23 5 21 6 21 40 5c22 3 45 10 50 15s14 39 21 76l11 66-12 12-12 12v-17zM530 647c0-7-9-30-20-52l-20-39v-83l21-27c11-14 29-31 39-36l19-10 16 57 17 57 39 36 39 35v48l-25-23-25-23v33h-12c-14 0-38-33-66-89-9-19-23-37-29-39l-13-4v61l20 11 20 11v89h-10c-5 0-10-6-10-13z"/></g><g fill="#2a201a" transform="matrix(.1 0 0 -.1 0 175)"><path d="M777 1633c-2-4-8-22-11-39l-7-31 14-6 15-5 6 36 5 37-8 8-9 9-5-9zm-97-43c0-5 5-10 11-10h10l-6 10c-3 6-8 10-11 10-2 0-4-4-4-10zm464-15c-4-8-3-27 0-41l7-25 17 3 17 3 3 38 3 37h-42l-5-15zm-614-50v-45h40v23c0 12-3 32-6 45l-6 22h-28v-45zm846-53c-3-9-8-34-12-54l-6-38h42v34c0 19 3 41 6 49l5 14-15 6-15 6-5-17zm-611-40c-17-11-42-35-57-55l-28-35-37-12c-64-21-134-81-204-176-22-30-59-74-83-98-24-25-46-54-49-66l-5-20h8c5 0 12 5 15 10 3 6 13 10 21 10h14v-59l-23-18c-31-24-75-92-87-132l-9-32 12 4c7 2 13 13 15 25s7 22 12 22 17 14 26 31l16 32 8-13 7-12 9 13c23 38 53 103 49 109-7 12 38 48 70 56l30 7-19-18c-10-11-25-35-33-55-8-19-23-44-33-55s-39-60-64-110l-46-90 12-4 11-4 18 24c10 13 21 36 24 51 9 37 70 136 110 178l34 35 13 50c7 28 19 55 26 60 7 6 18 32 25 59l12 49 27 20 28 21 6-7 7-6-11-38c-6-21-24-72-40-113-17-41-36-97-43-123l-12-48-33-44c-37-48-41-57-20-49 18 7 94 108 107 141 5 13 9 40 9 60v35l34 77c19 42 40 90 47 106l12 30-2 45-2 46 22 28c21 26 44 39 93 52l23 5 6-35c3-20 15-49 26-65l21-29 27-7 28-7-30-24-30-24h18c10 0 35 9 56 20 22 11 57 22 78 26l40 6 50-22 50-21 37-38 38-39-11-6-11-7-34 10-35 9-3-10-4-10-27 7-27 7v28h-42l-43-1 28-24c15-13 44-29 65-34l37-11h150l80-39c44-21 95-51 113-66l32-27v-48h-26c-14 0-34 5-45 11l-21 11 12-22c6-11 22-25 36-30 28-11 29-20 8-61l-15-30 19 10 19 10 6 30 6 29 20 7 20 6 6 29 6 29-17 25-16 26-72 44c-39 24-81 47-93 51l-23 6v12c0 13-69 97-70 85 0-4 15-24 33-45l32-37-18 7c-10 4-21 7-23 7s-4 7-4 15c0 7-6 18-14 22s-15 17-17 28l-4 20-62 42c-34 23-88 51-120 63l-58 22-82 5-83 6v67h-65l-30-18zm-155-147-23-25h-41l34 25c19 14 38 25 44 25h9l-23-25zm-60-126c0-11-5-29-10-39l-10-19-80-41c-44-22-83-40-86-40-2 0 0 10 7 23 15 29 49 56 72 57 9 0 17 3 17 8 0 4 9 22 20 40l20 32h50v-21zm-227 225c3-31 8-58 11-61 2-2 15 3 29 11l24 16-5 27c-5 28-35 63-53 63h-12l6-56zm494-5-7-36 6-17c3-9 15-21 25-27l19-10v9c0 4-5 13-12 20-6 6-14 31-18 54l-6 43-7-36zm733-89c0-5-7-10-15-10h-15l-10-26-10-26 25-26c14-14 27-23 29-21s10 25 19 51l16 48-20 10-19 11v-11zm-504-35c-21-7-43-18-49-24l-11-11h17c24 0 97 31 97 41 0 12-7 11-54-6zm-886-44v-40l10-6c5-3 13-20 18-38l8-32 27 42 27 42-6 14c-3 8-16 19-30 25-13 7-24 16-24 22 0 5-7 10-15 10h-15v-39zm1495-89 6-40-34-21-34-21 10-50 10-50h25l6 23 6 24 25 11 25 12v27c0 16-6 48-14 72l-13 45-13 4-12 4 7-40zm-514-30-10-19 51 13c67 18 71 24 15 24h-46l-10-18zm-239-18c-12-8-26-24-32-34l-10-20 44 28c25 15 46 30 46 35 0 12-24 8-48-9zm-826-26c-3-13-6-42-6-64v-42l30-12 30-12v-38h30v69l-22 21c-12 11-25 20-30 20h-8v80h-9c-5 0-11-10-15-22zm655-49c-12-19-21-38-21-42v-8l10 6c14 9 43 66 36 72-3 3-14-10-25-28zm181 9-12-12v-71l-46-24c-25-13-49-32-55-42l-9-18 27-16c16-9 46-40 67-68l40-50 4 12 4 13-35 51-35 50 10 26c5 14 18 36 30 48l20 21 3 29c1 15 6 36 10 46l7 17h-9c-5 0-14-5-21-12zm118-10-35-9-17-37c-9-20-19-53-23-72l-8-35 17 14 16 13v65l18 15c9 9 37 25 62 36l45 20h-20c-11 0-36-4-55-10zm265-19c8-12 80-49 96-49h11l-11 14c-7 8-32 21-57 30l-45 15 6-10zm-775-28c0-5-18-31-41-57-44-53-73-103-65-111 2-3 11 8 20 25 8 16 36 50 61 76 42 44 57 76 35 76-5 0-10-4-10-9zm102-4c-6-7-14-35-17-63l-7-50-28-16-29-16-16-31-16-32 7-10 6-11 34 49c19 26 43 60 55 74l21 26 1 47c1 25 1 46 1 46-1 0-6-6-12-13zm656-3c15-28 56-54 84-53l23 1-35 15c-19 8-46 24-59 36l-24 22 11-21zm-144-14c-12-4-31-21-43-37-11-15-26-34-32-42l-12-14-10-88-10-88 12-27 12-27 45 7c25 3 55 13 67 21l21 15h42c23 0 56-3 73-6l32-7 10-19 11-20-7-83c-4-45-11-88-15-95l-7-12-41 21-41 21h-61v-10c0-5-7-10-15-10s-15 5-15 10v10h-61l6 10 6 10h-39l-33 51-33 52-4-11-3-10-53 5-53 5-46-20-47-21v22c0 29-11 44-32 44h-17l6-46 5-47-35-63-35-63 5-19 5-19h68l24 39c14 21 37 48 52 60l27 21h124l11-25 11-24 33-17 32-17h77l45 24 46 23 45-16 45-16 13 31c7 18 18 72 24 121 7 49 19 107 26 130 8 23 15 48 15 57s12 34 26 55l27 39-21-19-21-19-32 7-32 6-46 38c-25 20-62 54-82 74l-36 38-19-1c-10 0-29-4-40-9zm72-116 7-25-7-46c-3-25-11-52-17-59l-11-14h-88v101l14 34 15 35h81l6-26zm84-94c0-5-4-10-10-10-5 0-10 5-10 10 0 6 5 10 10 10 6 0 10-4 10-10zm90-29c0-11-3-27-6-35l-6-17-14 12-14 11v48h40v-19zm330 175v-54l-22-6c-13-3-33-6-46-6h-23l3-47 3-46 13-5 12-4v40l43 14 42 13 3 45c2 24 1 59-3 77l-6 33h-19v-54zM686 888c-3-13-24-45-46-72s-39-50-38-52c2-1 22 0 45 3l42 5-6 28-5 28 16 23c17 25 21 59 7 59-5 0-11-10-15-22zM43 823l-13-5v-94l15-21 15-21 40-7 40-7v-38h30v-59l-10-6-10-6-21 11-21 12 6 14 5 14h-7c-4 0-13-4-20-9l-13-8 6-74c3-41 8-84 10-95l5-22 26-6 27-7 22 21 22 20-5-52-4-53 16-75 16-75 42-85 43-85 43-3 42-3-1 8c0 4-11 28-24 53-42 80-48 94-49 130 0 19 3 45 7 58l8 22h-15c-9 0-16-4-16-10 0-5-4-10-10-10h-10v70h-13c-8 0-21 8-29 18l-16 17 24 38 24 37h27l12 39 11 40 40 50c41 51 49 68 28 55l-11-7 6 34 6 34-9-20c-5-11-14-39-20-62l-11-43h-9c-6 0-10 6-11 13-1 6-9-13-19-43l-17-55-17-3-16-4-6 31-6 31h-58v36l46 54 46 54-11 4c-18 6-13 27 20 71 16 23 29 47 27 53l-4 11-32-50-32-50-4-32-4-33-20-20-20-20 13 63 13 64-13-19-14-18-10 7c-6 3-11 14-11 24 0 25-19 39-59 43l-35 3-8 33c-9 32-12 35-35 25zm1657-157v-16h-30v-79l-57 2-58 2V470l15-5 15-6 2 8c2 4 7 14 12 21l8 14 42 5 41 6 9 36c5 20 12 55 16 77l6 42-10 7-11 6v-15zM592 593c-11-16-27-45-37-65l-17-38h-28v18c0 9-5 24-10 32l-10 15v-83l31-31c17-17 34-31 37-31 8 0 57 131 67 178l7 32h-11c-5 0-18-12-29-27zm998-155v-16l-16-6-16-6 11-14 11-13-16-13-15-14-59 10-59 10 5-7c7-12-7-39-21-39-8 0-17-5-21-11l-7-11 11-7c12-7 32-55 32-75v-13l-34-18-35-19-26 12-26 12h-90l6 13c4 6-1 3-9-7l-16-20 10-10c11-11 13-56 4-80l-6-16h-88l-19 19-19 19-48 3-47 3-12-34-12-35-36-3-36-3-21 41-21 41-52-3-52-3-3-39-3-38-20-5-19-5V0h57l11 25 12 25h48l6-25 6-25h168l7 30 7 30h38l27-30 26-30h21c35 0 94 20 111 37l16 15-7 44-6 44h25c13 0 38-7 53-15 39-20 43-20 98 16l49 30-5 47c-3 26-4 53-1 60l5 12h106l26 52c31 62 32 70 6 93l-20 18v-15zM506 179l-18-11-34 5-34 6v-13c0-8-3-29-6-47l-7-34 14 13c18 16 29 15 29-3 0-8 6-33 12-55l13-40h50l-3 43-4 43 16 13c21 18 24 14 39-45l12-49 33-3 34-3-7 23c-3 13-16 51-28 86l-22 62h-76l6 10c8 12 5 12-19-1z"/></g></g></svg>